<?xml version="1.0" encoding="utf-8" standalone="no"?>
<!DOCTYPE svg PUBLIC "-//W3C//DTD SVG 1.1//EN"
  "http://www.w3.org/Graphics/SVG/1.1/DTD/svg11.dtd">
<svg xmlns:xlink="http://www.w3.org/1999/xlink" width="1440pt" height="720pt" viewBox="0 0 1440 720" xmlns="http://www.w3.org/2000/svg" version="1.1">
 <metadata>
  <rdf:RDF xmlns:dc="http://purl.org/dc/elements/1.1/" xmlns:cc="http://creativecommons.org/ns#" xmlns:rdf="http://www.w3.org/1999/02/22-rdf-syntax-ns#">
   <cc:Work>
    <dc:type rdf:resource="http://purl.org/dc/dcmitype/StillImage"/>
    <dc:date>2023-08-28T17:14:34.212467</dc:date>
    <dc:format>image/svg+xml</dc:format>
    <dc:creator>
     <cc:Agent>
      <dc:title>Matplotlib v3.7.0, https://matplotlib.org/</dc:title>
     </cc:Agent>
    </dc:creator>
   </cc:Work>
  </rdf:RDF>
 </metadata>
 <defs>
  <style type="text/css">*{stroke-linejoin: round; stroke-linecap: butt}</style>
 </defs>
 <g id="figure_1">
  <g id="patch_1">
   <path d="M 0 720 
L 1440 720 
L 1440 0 
L 0 0 
z
" style="fill: #ffffff"/>
  </g>
  <g id="axes_1">
   <g id="PathCollection_1">
    <defs>
     <path id="mc03e6ef2fb" d="M 0 3 
C 0.795609 3 1.55874 2.683901 2.12132 2.12132 
C 2.683901 1.55874 3 0.795609 3 0 
C 3 -0.795609 2.683901 -1.55874 2.12132 -2.12132 
C 1.55874 -2.683901 0.795609 -3 0 -3 
C -0.795609 -3 -1.55874 -2.683901 -2.12132 -2.12132 
C -2.683901 -1.55874 -3 -0.795609 -3 0 
C -3 0.795609 -2.683901 1.55874 -2.12132 2.12132 
C -1.55874 2.683901 -0.795609 3 0 3 
z
" style="stroke: #1f77b4; stroke-opacity: 0"/>
    </defs>
    <g clip-path="url(#pb091f92b54)">
     <use xlink:href="#mc03e6ef2fb" x="723.353601" y="363.600004" style="fill: #1f77b4; fill-opacity: 0; stroke: #1f77b4; stroke-opacity: 0"/>
    </g>
   </g>
   <g id="patch_2">
    <path d="M 1172.400706 363.968676 
Q 950.251998 358.950647 826.065346 174.135211 
" style="fill: none; opacity: 0"/>
   </g>
   <g id="PathCollection_2">
    <defs>
     <path id="m917d82d501" d="M 0 3 
C 0.795609 3 1.55874 2.683901 2.12132 2.12132 
C 2.683901 1.55874 3 0.795609 3 0 
C 3 -0.795609 2.683901 -1.55874 2.12132 -2.12132 
C 1.55874 -2.683901 0.795609 -3 0 -3 
C -0.795609 -3 -1.55874 -2.683901 -2.12132 -2.12132 
C -2.683901 -1.55874 -3 -0.795609 -3 0 
C -3 0.795609 -2.683901 1.55874 -2.12132 2.12132 
C -1.55874 2.683901 -0.795609 3 0 3 
z
" style="stroke: #ff7f0e; stroke-opacity: 0"/>
    </defs>
    <g clip-path="url(#pb091f92b54)">
     <use xlink:href="#m917d82d501" x="1172.879612" y="362.782079" style="fill: #ff7f0e; fill-opacity: 0; stroke: #ff7f0e; stroke-opacity: 0"/>
    </g>
   </g>
   <g id="patch_3">
    <path d="M 1060.16201 211.548139 
Q 951.571957 182.885416 842.981903 154.222692 
" style="fill: none; opacity: 0"/>
   </g>
   <g id="PathCollection_3">
    <defs>
     <path id="me8b040fcec" d="M 0 3 
C 0.795609 3 1.55874 2.683901 2.12132 2.12132 
C 2.683901 1.55874 3 0.795609 3 0 
C 3 -0.795609 2.683901 -1.55874 2.12132 -2.12132 
C 1.55874 -2.683901 0.795609 -3 0 -3 
C -0.795609 -3 -1.55874 -2.683901 -2.12132 -2.12132 
C -2.683901 -1.55874 -3 -0.795609 -3 0 
C -3 0.795609 -2.683901 1.55874 -2.12132 2.12132 
C -1.55874 2.683901 -0.795609 3 0 3 
z
" style="stroke: #2ca02c; stroke-opacity: 0"/>
    </defs>
    <g clip-path="url(#pb091f92b54)">
     <use xlink:href="#me8b040fcec" x="1060.632764" y="211.672396" style="fill: #2ca02c; fill-opacity: 0; stroke: #2ca02c; stroke-opacity: 0"/>
    </g>
   </g>
   <g id="patch_4">
    <path d="M 789.563904 174.273977 
Q 618.105636 438.532008 303.589567 440.224872 
" style="fill: none; opacity: 0"/>
   </g>
   <g id="PathCollection_4">
    <defs>
     <path id="m1eaef13b39" d="M 0 3 
C 0.795609 3 1.55874 2.683901 2.12132 2.12132 
C 2.683901 1.55874 3 0.795609 3 0 
C 3 -0.795609 2.683901 -1.55874 2.12132 -2.12132 
C 1.55874 -2.683901 0.795609 -3 0 -3 
C -0.795609 -3 -1.55874 -2.683901 -2.12132 -2.12132 
C -2.683901 -1.55874 -3 -0.795609 -3 0 
C -3 0.795609 -2.683901 1.55874 -2.12132 2.12132 
C -1.55874 2.683901 -0.795609 3 0 3 
z
" style="stroke: #d62728; stroke-opacity: 0"/>
    </defs>
    <g clip-path="url(#pb091f92b54)">
     <use xlink:href="#m1eaef13b39" x="789.633699" y="174.166388" style="fill: #d62728; fill-opacity: 0; stroke: #d62728; stroke-opacity: 0"/>
    </g>
   </g>
   <g id="patch_5">
    <path d="M 1058.773652 507.119366 
Q 695.091092 507.293098 498.548544 200.701755 
" style="fill: none; opacity: 0"/>
   </g>
   <g id="PathCollection_5">
    <defs>
     <path id="m9e9dd8f795" d="M 0 3 
C 0.795609 3 1.55874 2.683901 2.12132 2.12132 
C 2.683901 1.55874 3 0.795609 3 0 
C 3 -0.795609 2.683901 -1.55874 2.12132 -2.12132 
C 1.55874 -2.683901 0.795609 -3 0 -3 
C -0.795609 -3 -1.55874 -2.683901 -2.12132 -2.12132 
C -2.683901 -1.55874 -3 -0.795609 -3 0 
C -3 0.795609 -2.683901 1.55874 -2.12132 2.12132 
C -1.55874 2.683901 -0.795609 3 0 3 
z
" style="stroke: #9467bd; stroke-opacity: 0"/>
    </defs>
    <g clip-path="url(#pb091f92b54)">
     <use xlink:href="#m9e9dd8f795" x="1058.901464" y="507.119295" style="fill: #9467bd; fill-opacity: 0; stroke: #9467bd; stroke-opacity: 0"/>
    </g>
   </g>
   <g id="patch_6">
    <path d="M 285.056551 410.186011 
Q 456.51482 145.92798 771.030888 144.235116 
" style="fill: none; opacity: 0"/>
   </g>
   <g id="PathCollection_6">
    <defs>
     <path id="mabf1ca567f" d="M 0 3 
C 0.795609 3 1.55874 2.683901 2.12132 2.12132 
C 2.683901 1.55874 3 0.795609 3 0 
C 3 -0.795609 2.683901 -1.55874 2.12132 -2.12132 
C 1.55874 -2.683901 0.795609 -3 0 -3 
C -0.795609 -3 -1.55874 -2.683901 -2.12132 -2.12132 
C -2.683901 -1.55874 -3 -0.795609 -3 0 
C -3 0.795609 -2.683901 1.55874 -2.12132 2.12132 
C -1.55874 2.683901 -0.795609 3 0 3 
z
" style="stroke: #8c564b; stroke-opacity: 0"/>
    </defs>
    <g clip-path="url(#pb091f92b54)">
     <use xlink:href="#mabf1ca567f" x="284.986757" y="410.2936" style="fill: #8c564b; fill-opacity: 0; stroke: #8c564b; stroke-opacity: 0"/>
    </g>
   </g>
   <g id="patch_7">
    <path d="M 298.457149 456.732421 
Q 373.707041 497.732083 448.956932 538.731745 
" style="fill: none; opacity: 0"/>
   </g>
   <g id="PathCollection_7">
    <defs>
     <path id="mf090319a05" d="M 0 3 
C 0.795609 3 1.55874 2.683901 2.12132 2.12132 
C 2.683901 1.55874 3 0.795609 3 0 
C 3 -0.795609 2.683901 -1.55874 2.12132 -2.12132 
C 1.55874 -2.683901 0.795609 -3 0 -3 
C -0.795609 -3 -1.55874 -2.683901 -2.12132 -2.12132 
C -2.683901 -1.55874 -3 -0.795609 -3 0 
C -3 0.795609 -2.683901 1.55874 -2.12132 2.12132 
C -1.55874 2.683901 -0.795609 3 0 3 
z
" style="stroke: #e377c2; stroke-opacity: 0"/>
    </defs>
    <g clip-path="url(#pb091f92b54)">
     <use xlink:href="#mf090319a05" x="298.390344" y="456.696022" style="fill: #e377c2; fill-opacity: 0; stroke: #e377c2; stroke-opacity: 0"/>
    </g>
   </g>
   <g id="patch_8">
    <path d="M 303.590061 440.268491 
Q 401.587924 448.603123 461.308684 527.190721 
" style="fill: none; opacity: 0"/>
   </g>
   <g id="PathCollection_8">
    <defs>
     <path id="m0222a4eccb" d="M 0 3 
C 0.795609 3 1.55874 2.683901 2.12132 2.12132 
C 2.683901 1.55874 3 0.795609 3 0 
C 3 -0.795609 2.683901 -1.55874 2.12132 -2.12132 
C 1.55874 -2.683901 0.795609 -3 0 -3 
C -0.795609 -3 -1.55874 -2.683901 -2.12132 -2.12132 
C -2.683901 -1.55874 -3 -0.795609 -3 0 
C -3 0.795609 -2.683901 1.55874 -2.12132 2.12132 
C -1.55874 2.683901 -0.795609 3 0 3 
z
" style="stroke: #7f7f7f; stroke-opacity: 0"/>
    </defs>
    <g clip-path="url(#pb091f92b54)">
     <use xlink:href="#m0222a4eccb" x="303.462815" y="440.2577" style="fill: #7f7f7f; fill-opacity: 0; stroke: #7f7f7f; stroke-opacity: 0"/>
    </g>
   </g>
   <g id="patch_9">
    <path d="M 1060.219745 515.933114 
Q 619.581834 628.057357 291.847747 312.440315 
" style="fill: none; opacity: 0"/>
   </g>
   <g id="PathCollection_9">
    <defs>
     <path id="mdf5ac73337" d="M 0 3 
C 0.795609 3 1.55874 2.683901 2.12132 2.12132 
C 2.683901 1.55874 3 0.795609 3 0 
C 3 -0.795609 2.683901 -1.55874 2.12132 -2.12132 
C 1.55874 -2.683901 0.795609 -3 0 -3 
C -0.795609 -3 -1.55874 -2.683901 -2.12132 -2.12132 
C -2.683901 -1.55874 -3 -0.795609 -3 0 
C -3 0.795609 -2.683901 1.55874 -2.12132 2.12132 
C -1.55874 2.683901 -0.795609 3 0 3 
z
" style="stroke: #bcbd22; stroke-opacity: 0"/>
    </defs>
    <g clip-path="url(#pb091f92b54)">
     <use xlink:href="#mdf5ac73337" x="1060.413644" y="515.883755" style="fill: #bcbd22; fill-opacity: 0; stroke: #bcbd22; stroke-opacity: 0"/>
    </g>
   </g>
   <g id="patch_10">
    <path d="M 1209.078396 396.909608 
C 1218.677245 396.909608 1227.884242 393.399897 1234.671653 387.153449 
C 1241.459064 380.907002 1245.272727 372.433811 1245.272727 363.6 
C 1245.272727 354.766189 1241.459064 346.292998 1234.671653 340.046551 
C 1227.884242 333.800103 1218.677245 330.290392 1209.078396 330.290392 
C 1199.479547 330.290392 1190.27255 333.800103 1183.485139 340.046551 
C 1176.697727 346.292998 1172.884064 354.766189 1172.884064 363.6 
C 1172.884064 372.433811 1176.697727 380.907002 1183.485139 387.153449 
C 1190.27255 393.399897 1199.479547 396.909608 1209.078396 396.909608 
z
" style="fill: #d3d3d3; stroke: #d3d3d3; stroke-linejoin: miter"/>
   </g>
   <g id="patch_11">
    <path d="M 1095.440379 254.169596 
C 1105.039228 254.169596 1114.246225 250.659885 1121.033636 244.413437 
C 1127.821048 238.16699 1131.634711 229.693799 1131.634711 220.859988 
C 1131.634711 212.026177 1127.821048 203.552986 1121.033636 197.306539 
C 1114.246225 191.060091 1105.039228 187.55038 1095.440379 187.55038 
C 1085.84153 187.55038 1076.634533 191.060091 1069.847122 197.306539 
C 1063.059711 203.552986 1059.246048 212.026177 1059.246048 220.859988 
C 1059.246048 229.693799 1063.059711 238.16699 1069.847122 244.413437 
C 1076.634533 250.659885 1085.84153 254.169596 1095.440379 254.169596 
z
" style="fill: #d3d3d3; stroke: #d3d3d3; stroke-linejoin: miter"/>
   </g>
   <g id="patch_12">
    <path d="M 807.698851 178.219215 
C 817.2977 178.219215 826.504697 174.709505 833.292109 168.463057 
C 840.07952 162.216609 843.893183 153.743419 843.893183 144.909608 
C 843.893183 136.075796 840.07952 127.602606 833.292109 121.356158 
C 826.504697 115.10971 817.2977 111.6 807.698851 111.6 
C 798.100002 111.6 788.893005 115.10971 782.105594 121.356158 
C 775.318183 127.602606 771.50452 136.075796 771.50452 144.909608 
C 771.50452 153.743419 775.318183 162.216609 782.105594 168.463057 
C 788.893005 174.709505 798.100002 178.219215 807.698851 178.219215 
z
" style="fill: #d3d3d3; stroke: #d3d3d3; stroke-linejoin: miter"/>
   </g>
   <g id="patch_13">
    <path d="M 480.49118 204.596503 
C 490.090029 204.596503 499.297026 201.086793 506.084437 194.840345 
C 512.871848 188.593897 516.685511 180.120707 516.685511 171.286895 
C 516.685511 162.453084 512.871848 153.979894 506.084437 147.733446 
C 499.297026 141.486998 490.090029 137.977288 480.49118 137.977288 
C 470.892331 137.977288 461.685334 141.486998 454.897922 147.733446 
C 448.110511 153.979894 444.296848 162.453084 444.296848 171.286895 
C 444.296848 180.120707 448.110511 188.593897 454.897922 194.840345 
C 461.685334 201.086793 470.892331 204.596503 480.49118 204.596503 
z
" style="fill: #d3d3d3; stroke: #d3d3d3; stroke-linejoin: miter"/>
   </g>
   <g id="patch_14">
    <path d="M 266.921604 320.959214 
C 276.520453 320.959214 285.72745 317.449504 292.514861 311.203056 
C 299.302273 304.956608 303.115936 296.483418 303.115936 287.649606 
C 303.115936 278.815795 299.302273 270.342605 292.514861 264.096157 
C 285.72745 257.849709 276.520453 254.339999 266.921604 254.339999 
C 257.322755 254.339999 248.115758 257.849709 241.328347 264.096157 
C 234.540936 270.342605 230.727273 278.815795 230.727273 287.649606 
C 230.727273 296.483418 234.540936 304.956608 241.328347 311.203056 
C 248.115758 317.449504 257.322755 320.959214 266.921604 320.959214 
z
" style="fill: #d3d3d3; stroke: #d3d3d3; stroke-linejoin: miter"/>
   </g>
   <g id="patch_15">
    <path d="M 266.921604 472.859988 
C 276.520453 472.859988 285.72745 469.350278 292.514861 463.10383 
C 299.302273 456.857382 303.115936 448.384192 303.115936 439.55038 
C 303.115936 430.716569 299.302273 422.243379 292.514861 415.996931 
C 285.72745 409.750483 276.520453 406.240773 266.921604 406.240773 
C 257.322755 406.240773 248.115758 409.750483 241.328347 415.996931 
C 234.540936 422.243379 230.727273 430.716569 230.727273 439.55038 
C 230.727273 448.384192 234.540936 456.857382 241.328347 463.10383 
C 248.115758 469.350278 257.322755 472.859988 266.921604 472.859988 
z
" style="fill: #d3d3d3; stroke: #d3d3d3; stroke-linejoin: miter"/>
   </g>
   <g id="patch_16">
    <path d="M 480.491252 589.222725 
C 490.090101 589.222725 499.297098 585.713015 506.084509 579.466567 
C 512.87192 573.220119 516.685584 564.746929 516.685584 555.913118 
C 516.685584 547.079307 512.87192 538.606116 506.084509 532.359668 
C 499.297098 526.113221 490.090101 522.60351 480.491252 522.60351 
C 470.892403 522.60351 461.685406 526.113221 454.897995 532.359668 
C 448.110584 538.606116 444.296921 547.079307 444.296921 555.913118 
C 444.296921 564.746929 448.110584 573.220119 454.897995 579.466567 
C 461.685406 585.713015 470.892403 589.222725 480.491252 589.222725 
z
" style="fill: #d3d3d3; stroke: #d3d3d3; stroke-linejoin: miter"/>
   </g>
   <g id="patch_17">
    <path d="M 807.698822 615.6 
C 817.297671 615.6 826.504669 612.09029 833.29208 605.843842 
C 840.079491 599.597394 843.893154 591.124204 843.893154 582.290392 
C 843.893154 573.456581 840.079491 564.983391 833.29208 558.736943 
C 826.504669 552.490495 817.297671 548.980785 807.698822 548.980785 
C 798.099974 548.980785 788.892976 552.490495 782.105565 558.736943 
C 775.318154 564.983391 771.504491 573.456581 771.504491 582.290392 
C 771.504491 591.124204 775.318154 599.597394 782.105565 605.843842 
C 788.892976 612.09029 798.099974 615.6 807.698822 615.6 
z
" style="fill: #d3d3d3; stroke: #d3d3d3; stroke-linejoin: miter"/>
   </g>
   <g id="patch_18">
    <path d="M 1095.440321 539.649659 
C 1105.03917 539.649659 1114.246167 536.139949 1121.033579 529.893501 
C 1127.82099 523.647053 1131.634653 515.173863 1131.634653 506.340052 
C 1131.634653 497.50624 1127.82099 489.03305 1121.033579 482.786602 
C 1114.246167 476.540154 1105.03917 473.030444 1095.440321 473.030444 
C 1085.841472 473.030444 1076.634475 476.540154 1069.847064 482.786602 
C 1063.059653 489.03305 1059.24599 497.50624 1059.24599 506.340052 
C 1059.24599 515.173863 1063.059653 523.647053 1069.847064 529.893501 
C 1076.634475 536.139949 1085.841472 539.649659 1095.440321 539.649659 
z
" style="fill: #d3d3d3; stroke: #d3d3d3; stroke-linejoin: miter"/>
   </g>
   <g id="patch_19">
    <path d="M 1172.310375 367.967656 
Q 956.206064 363.086161 831.933481 189.610195 
L 828.681753 191.939629 
Q 827.23975 183.056503 826.065346 174.135211 
Q 833.882422 178.595103 841.688667 182.621895 
L 838.436939 184.951328 
Q 960.382156 355.178453 1172.491038 359.969696 
L 1172.310375 367.967656 
z
"/>
   </g>
   <g id="text_1">
    <path d="M 969.391989 313.361841 
L 972.291677 313.361841 
L 972.291677 303.349341 
L 969.136052 303.982153 
L 969.136052 302.364966 
L 972.274802 301.732153 
L 974.049489 301.732153 
L 974.049489 313.361841 
L 976.949177 313.361841 
L 976.949177 314.855278 
L 969.391989 314.855278 
L 969.391989 313.361841 
z
" style="fill: #ffffff; stroke: #000000; stroke-width: 2"/>
    <path d="M 969.391989 313.361841 
L 972.291677 313.361841 
L 972.291677 303.349341 
L 969.136052 303.982153 
L 969.136052 302.364966 
L 972.274802 301.732153 
L 974.049489 301.732153 
L 974.049489 313.361841 
L 976.949177 313.361841 
L 976.949177 314.855278 
L 969.391989 314.855278 
L 969.391989 313.361841 
z
" style="fill: #ffffff"/>
   </g>
   <g id="patch_20">
    <path d="M 1060.16201 211.548139 
Q 951.571957 182.885416 842.981903 154.222692 
" style="fill: none; stroke: #000000; stroke-width: 8"/>
   </g>
   <g id="PathCollection_10">
    <defs>
     <path id="mc6f9d9a447" d="M -2 4 
L 0 2 
L 2 4 
L 4 2 
L 2 0 
L 4 -2 
L 2 -4 
L 0 -2 
L -2 -4 
L -4 -2 
L -2 0 
L -4 2 
z
" style="stroke: #000000"/>
    </defs>
    <g clip-path="url(#pb091f92b54)">
     <use xlink:href="#mc6f9d9a447" x="1060.632764" y="211.672396" style="fill: #ffffff; stroke: #000000"/>
    </g>
   </g>
   <g id="PathCollection_11">
    <g clip-path="url(#pb091f92b54)">
     <use xlink:href="#mc6f9d9a447" x="1060.632764" y="211.672396" style="fill: #ffffff; stroke: #000000"/>
    </g>
   </g>
   <g id="PathCollection_12">
    <g clip-path="url(#pb091f92b54)">
     <use xlink:href="#mc6f9d9a447" x="842.506524" y="154.097214" style="fill: #ffffff; stroke: #000000"/>
    </g>
   </g>
   <g id="PathCollection_13">
    <g clip-path="url(#pb091f92b54)">
     <use xlink:href="#mc6f9d9a447" x="842.506524" y="154.097214" style="fill: #ffffff; stroke: #000000"/>
    </g>
   </g>
   <g id="patch_21">
    <path d="M 792.919473 176.451168 
Q 624.702504 435.713584 319.69562 443.964973 
L 319.803793 447.96351 
Q 311.656361 444.181985 303.589567 440.224872 
Q 311.614271 436.181147 319.371101 431.969362 
L 319.479274 435.967899 
Q 620.281039 427.830272 786.208336 172.096787 
L 792.919473 176.451168 
z
"/>
   </g>
   <g id="text_2">
    <path d="M 584.717621 376.43133 
L 587.617308 376.43133 
L 587.617308 366.41883 
L 584.461683 367.051643 
L 584.461683 365.434455 
L 587.600433 364.801643 
L 589.375121 364.801643 
L 589.375121 376.43133 
L 592.274808 376.43133 
L 592.274808 377.924768 
L 584.717621 377.924768 
L 584.717621 376.43133 
z
" style="fill: #ffffff; stroke: #000000; stroke-width: 2"/>
    <path d="M 584.717621 376.43133 
L 587.617308 376.43133 
L 587.617308 366.41883 
L 584.461683 367.051643 
L 584.461683 365.434455 
L 587.600433 364.801643 
L 589.375121 364.801643 
L 589.375121 376.43133 
L 592.274808 376.43133 
L 592.274808 377.924768 
L 584.717621 377.924768 
L 584.717621 376.43133 
z
" style="fill: #ffffff"/>
   </g>
   <g id="patch_22">
    <path d="M 1058.775563 511.119365 
Q 700.981663 511.290285 503.981214 216.310176 
L 500.65482 218.531685 
Q 499.51938 209.628576 498.548544 200.701755 
Q 506.255319 205.311343 513.960395 209.645647 
L 510.634001 211.867157 
Q 705.257581 503.288241 1058.771741 503.119366 
L 1058.775563 511.119365 
z
"/>
   </g>
   <g id="text_3">
    <path d="M 890.336745 484.838554 
L 885.85362 491.844491 
L 890.336745 491.844491 
L 890.336745 484.838554 
z
M 889.86987 483.291679 
L 892.102995 483.291679 
L 892.102995 491.844491 
L 893.97612 491.844491 
L 893.97612 493.321054 
L 892.102995 493.321054 
L 892.102995 496.414804 
L 890.336745 496.414804 
L 890.336745 493.321054 
L 884.41362 493.321054 
L 884.41362 491.608241 
L 889.86987 483.291679 
z
" style="fill: #ffffff; stroke: #000000; stroke-width: 2"/>
    <path d="M 890.336745 484.838554 
L 885.85362 491.844491 
L 890.336745 491.844491 
L 890.336745 484.838554 
z
M 889.86987 483.291679 
L 892.102995 483.291679 
L 892.102995 491.844491 
L 893.97612 491.844491 
L 893.97612 493.321054 
L 892.102995 493.321054 
L 892.102995 496.414804 
L 890.336745 496.414804 
L 890.336745 493.321054 
L 884.41362 493.321054 
L 884.41362 491.608241 
L 889.86987 483.291679 
z
" style="fill: #ffffff"/>
   </g>
   <g id="patch_23">
    <path d="M 281.700982 408.00882 
Q 449.917952 148.746404 754.924836 140.495015 
L 754.816663 136.496478 
Q 762.964095 140.278003 771.030888 144.235116 
Q 763.006185 148.278841 755.249355 152.490626 
L 755.141182 148.492089 
Q 454.339416 156.629716 288.41212 412.363201 
L 281.700982 408.00882 
z
"/>
   </g>
   <g id="text_4">
    <path d="M 487.987522 209.39272 
Q 489.261585 209.665533 489.97596 210.52897 
Q 490.693147 211.389595 490.693147 212.65522 
Q 490.693147 214.595845 489.35721 215.661783 
Q 488.021272 216.724908 485.560335 216.724908 
Q 484.736272 216.724908 483.861585 216.561783 
Q 482.986897 216.398658 482.05596 216.072408 
L 482.05596 214.359595 
Q 482.792835 214.789908 483.670335 215.009283 
Q 484.550647 215.228658 485.50971 215.228658 
Q 487.177522 215.228658 488.05221 214.570533 
Q 488.926897 213.912408 488.926897 212.65522 
Q 488.926897 211.493658 488.114085 210.841158 
Q 487.301272 210.185845 485.852835 210.185845 
L 484.322835 210.185845 
L 484.322835 208.726158 
L 485.923147 208.726158 
Q 487.23096 208.726158 487.925647 208.203033 
Q 488.620335 207.679908 488.620335 206.695533 
Q 488.620335 205.685845 487.903147 205.145845 
Q 487.188772 204.603033 485.852835 204.603033 
Q 485.121585 204.603033 484.286272 204.763345 
Q 483.45096 204.920845 482.44971 205.25272 
L 482.44971 203.672095 
Q 483.46221 203.390845 484.345335 203.25022 
Q 485.22846 203.109595 486.010335 203.109595 
Q 488.032522 203.109595 489.208147 204.029283 
Q 490.386585 204.946158 490.386585 206.509908 
Q 490.386585 207.601158 489.76221 208.352095 
Q 489.137835 209.103033 487.987522 209.39272 
z
" style="fill: #ffffff; stroke: #000000; stroke-width: 2"/>
    <path d="M 487.987522 209.39272 
Q 489.261585 209.665533 489.97596 210.52897 
Q 490.693147 211.389595 490.693147 212.65522 
Q 490.693147 214.595845 489.35721 215.661783 
Q 488.021272 216.724908 485.560335 216.724908 
Q 484.736272 216.724908 483.861585 216.561783 
Q 482.986897 216.398658 482.05596 216.072408 
L 482.05596 214.359595 
Q 482.792835 214.789908 483.670335 215.009283 
Q 484.550647 215.228658 485.50971 215.228658 
Q 487.177522 215.228658 488.05221 214.570533 
Q 488.926897 213.912408 488.926897 212.65522 
Q 488.926897 211.493658 488.114085 210.841158 
Q 487.301272 210.185845 485.852835 210.185845 
L 484.322835 210.185845 
L 484.322835 208.726158 
L 485.923147 208.726158 
Q 487.23096 208.726158 487.925647 208.203033 
Q 488.620335 207.679908 488.620335 206.695533 
Q 488.620335 205.685845 487.903147 205.145845 
Q 487.188772 204.603033 485.852835 204.603033 
Q 485.121585 204.603033 484.286272 204.763345 
Q 483.45096 204.920845 482.44971 205.25272 
L 482.44971 203.672095 
Q 483.46221 203.390845 484.345335 203.25022 
Q 485.22846 203.109595 486.010335 203.109595 
Q 488.032522 203.109595 489.208147 204.029283 
Q 490.386585 204.946158 490.386585 206.509908 
Q 490.386585 207.601158 489.76221 208.352095 
Q 489.137835 209.103033 487.987522 209.39272 
z
" style="fill: #ffffff"/>
   </g>
   <g id="patch_24">
    <path d="M 300.370912 453.219942 
Q 368.594832 490.391525 436.818752 527.563109 
L 438.732515 524.05063 
Q 443.844724 531.391187 448.956932 538.731745 
Q 440.017198 538.416146 431.077463 538.100547 
L 432.991226 534.588068 
Q 364.767306 497.416484 296.543386 460.2449 
L 300.370912 453.219942 
z
"/>
   </g>
   <g id="patch_25">
    <path d="M 303.929034 436.28288 
Q 395.50136 444.071026 454.267507 512.140691 
L 457.295267 509.526754 
Q 459.593138 518.315549 461.308684 527.190721 
Q 453.213535 523.155827 445.184225 519.982502 
L 448.211986 517.368565 
Q 391.575779 451.76604 303.251089 444.254103 
L 303.929034 436.28288 
z
"/>
   </g>
   <g id="text_5">
    <path d="M 390.225446 458.981109 
Q 391.499509 459.253922 392.213884 460.117359 
Q 392.931071 460.977984 392.931071 462.243609 
Q 392.931071 464.184234 391.595134 465.250172 
Q 390.259196 466.313297 387.798259 466.313297 
Q 386.974196 466.313297 386.099509 466.150172 
Q 385.224821 465.987047 384.293884 465.660797 
L 384.293884 463.947984 
Q 385.030759 464.378297 385.908259 464.597672 
Q 386.788571 464.817047 387.747634 464.817047 
Q 389.415446 464.817047 390.290134 464.158922 
Q 391.164821 463.500797 391.164821 462.243609 
Q 391.164821 461.082047 390.352009 460.429547 
Q 389.539196 459.774234 388.090759 459.774234 
L 386.560759 459.774234 
L 386.560759 458.314547 
L 388.161071 458.314547 
Q 389.468884 458.314547 390.163571 457.791422 
Q 390.858259 457.268297 390.858259 456.283922 
Q 390.858259 455.274234 390.141071 454.734234 
Q 389.426696 454.191422 388.090759 454.191422 
Q 387.359509 454.191422 386.524196 454.351734 
Q 385.688884 454.509234 384.687634 454.841109 
L 384.687634 453.260484 
Q 385.700134 452.979234 386.583259 452.838609 
Q 387.466384 452.697984 388.248259 452.697984 
Q 390.270446 452.697984 391.446071 453.617672 
Q 392.624509 454.534547 392.624509 456.098297 
Q 392.624509 457.189547 392.000134 457.940484 
Q 391.375759 458.691422 390.225446 458.981109 
z
" style="fill: #ffffff; stroke: #000000; stroke-width: 2"/>
    <path d="M 390.225446 458.981109 
Q 391.499509 459.253922 392.213884 460.117359 
Q 392.931071 460.977984 392.931071 462.243609 
Q 392.931071 464.184234 391.595134 465.250172 
Q 390.259196 466.313297 387.798259 466.313297 
Q 386.974196 466.313297 386.099509 466.150172 
Q 385.224821 465.987047 384.293884 465.660797 
L 384.293884 463.947984 
Q 385.030759 464.378297 385.908259 464.597672 
Q 386.788571 464.817047 387.747634 464.817047 
Q 389.415446 464.817047 390.290134 464.158922 
Q 391.164821 463.500797 391.164821 462.243609 
Q 391.164821 461.082047 390.352009 460.429547 
Q 389.539196 459.774234 388.090759 459.774234 
L 386.560759 459.774234 
L 386.560759 458.314547 
L 388.161071 458.314547 
Q 389.468884 458.314547 390.163571 457.791422 
Q 390.858259 457.268297 390.858259 456.283922 
Q 390.858259 455.274234 390.141071 454.734234 
Q 389.426696 454.191422 388.090759 454.191422 
Q 387.359509 454.191422 386.524196 454.351734 
Q 385.688884 454.509234 384.687634 454.841109 
L 384.687634 453.260484 
Q 385.700134 452.979234 386.583259 452.838609 
Q 387.466384 452.697984 388.248259 452.697984 
Q 390.270446 452.697984 391.446071 453.617672 
Q 392.624509 454.534547 392.624509 456.098297 
Q 392.624509 457.189547 392.000134 457.940484 
Q 391.375759 458.691422 390.225446 458.981109 
z
" style="fill: #ffffff"/>
   </g>
   <g id="patch_26">
    <path d="M 1061.206147 519.809582 
Q 626.22985 630.493178 300.726583 326.376233 
L 297.995804 329.299048 
Q 294.85995 320.894735 291.847747 312.440315 
Q 300.409955 315.132373 308.91892 317.607789 
L 306.188141 320.530603 
Q 628.495592 621.661704 1059.233343 512.056645 
L 1061.206147 519.809582 
z
"/>
   </g>
   <g id="text_6">
    <path d="M 840.433459 551.58984 
L 843.333147 551.58984 
L 843.333147 541.57734 
L 840.177522 542.210153 
L 840.177522 540.592965 
L 843.316272 539.960153 
L 845.090959 539.960153 
L 845.090959 551.58984 
L 847.990647 551.58984 
L 847.990647 553.083278 
L 840.433459 553.083278 
L 840.433459 551.58984 
z
M 855.373108 541.130153 
Q 854.00342 541.130153 853.311545 542.480153 
Q 852.622483 543.82734 852.622483 546.535778 
Q 852.622483 549.232965 853.311545 550.582965 
Q 854.00342 551.932965 855.373108 551.932965 
Q 856.754045 551.932965 857.443108 550.582965 
Q 858.134983 549.232965 858.134983 546.535778 
Q 858.134983 543.82734 857.443108 542.480153 
Q 856.754045 541.130153 855.373108 541.130153 
z
M 855.373108 539.723903 
Q 857.58092 539.723903 858.745295 541.470465 
Q 859.90967 543.214215 859.90967 546.535778 
Q 859.90967 549.848903 858.745295 551.595465 
Q 857.58092 553.339215 855.373108 553.339215 
Q 853.168108 553.339215 852.003733 551.595465 
Q 850.839358 549.848903 850.839358 546.535778 
Q 850.839358 543.214215 852.003733 541.470465 
Q 853.168108 539.723903 855.373108 539.723903 
z
" style="fill: #ffffff; stroke: #000000; stroke-width: 2"/>
    <path d="M 840.433459 551.58984 
L 843.333147 551.58984 
L 843.333147 541.57734 
L 840.177522 542.210153 
L 840.177522 540.592965 
L 843.316272 539.960153 
L 845.090959 539.960153 
L 845.090959 551.58984 
L 847.990647 551.58984 
L 847.990647 553.083278 
L 840.433459 553.083278 
L 840.433459 551.58984 
z
M 855.373108 541.130153 
Q 854.00342 541.130153 853.311545 542.480153 
Q 852.622483 543.82734 852.622483 546.535778 
Q 852.622483 549.232965 853.311545 550.582965 
Q 854.00342 551.932965 855.373108 551.932965 
Q 856.754045 551.932965 857.443108 550.582965 
Q 858.134983 549.232965 858.134983 546.535778 
Q 858.134983 543.82734 857.443108 542.480153 
Q 856.754045 541.130153 855.373108 541.130153 
z
M 855.373108 539.723903 
Q 857.58092 539.723903 858.745295 541.470465 
Q 859.90967 543.214215 859.90967 546.535778 
Q 859.90967 549.848903 858.745295 551.595465 
Q 857.58092 553.339215 855.373108 553.339215 
Q 853.168108 553.339215 852.003733 551.595465 
Q 850.839358 549.848903 850.839358 546.535778 
Q 850.839358 543.214215 852.003733 541.470465 
Q 853.168108 539.723903 855.373108 539.723903 
z
" style="fill: #ffffff"/>
   </g>
   <g id="matplotlib.axis_1"/>
   <g id="matplotlib.axis_2"/>
   <g id="text_7">
    <!-- bld_vol -->
    <g transform="translate(1177.316833 368.316562) scale(0.18 -0.18)">
     <defs>
      <path id="DejaVuSans-62" d="M 3116 1747 
Q 3116 2381 2855 2742 
Q 2594 3103 2138 3103 
Q 1681 3103 1420 2742 
Q 1159 2381 1159 1747 
Q 1159 1113 1420 752 
Q 1681 391 2138 391 
Q 2594 391 2855 752 
Q 3116 1113 3116 1747 
z
M 1159 2969 
Q 1341 3281 1617 3432 
Q 1894 3584 2278 3584 
Q 2916 3584 3314 3078 
Q 3713 2572 3713 1747 
Q 3713 922 3314 415 
Q 2916 -91 2278 -91 
Q 1894 -91 1617 61 
Q 1341 213 1159 525 
L 1159 0 
L 581 0 
L 581 4863 
L 1159 4863 
L 1159 2969 
z
" transform="scale(0.015625)"/>
      <path id="DejaVuSans-6c" d="M 603 4863 
L 1178 4863 
L 1178 0 
L 603 0 
L 603 4863 
z
" transform="scale(0.015625)"/>
      <path id="DejaVuSans-64" d="M 2906 2969 
L 2906 4863 
L 3481 4863 
L 3481 0 
L 2906 0 
L 2906 525 
Q 2725 213 2448 61 
Q 2172 -91 1784 -91 
Q 1150 -91 751 415 
Q 353 922 353 1747 
Q 353 2572 751 3078 
Q 1150 3584 1784 3584 
Q 2172 3584 2448 3432 
Q 2725 3281 2906 2969 
z
M 947 1747 
Q 947 1113 1208 752 
Q 1469 391 1925 391 
Q 2381 391 2643 752 
Q 2906 1113 2906 1747 
Q 2906 2381 2643 2742 
Q 2381 3103 1925 3103 
Q 1469 3103 1208 2742 
Q 947 2381 947 1747 
z
" transform="scale(0.015625)"/>
      <path id="DejaVuSans-5f" d="M 3263 -1063 
L 3263 -1509 
L -63 -1509 
L -63 -1063 
L 3263 -1063 
z
" transform="scale(0.015625)"/>
      <path id="DejaVuSans-76" d="M 191 3500 
L 800 3500 
L 1894 563 
L 2988 3500 
L 3597 3500 
L 2284 0 
L 1503 0 
L 191 3500 
z
" transform="scale(0.015625)"/>
      <path id="DejaVuSans-6f" d="M 1959 3097 
Q 1497 3097 1228 2736 
Q 959 2375 959 1747 
Q 959 1119 1226 758 
Q 1494 397 1959 397 
Q 2419 397 2687 759 
Q 2956 1122 2956 1747 
Q 2956 2369 2687 2733 
Q 2419 3097 1959 3097 
z
M 1959 3584 
Q 2709 3584 3137 3096 
Q 3566 2609 3566 1747 
Q 3566 888 3137 398 
Q 2709 -91 1959 -91 
Q 1206 -91 779 398 
Q 353 888 353 1747 
Q 353 2609 779 3096 
Q 1206 3584 1959 3584 
z
" transform="scale(0.015625)"/>
     </defs>
     <use xlink:href="#DejaVuSans-62"/>
     <use xlink:href="#DejaVuSans-6c" x="63.476562"/>
     <use xlink:href="#DejaVuSans-64" x="91.259766"/>
     <use xlink:href="#DejaVuSans-5f" x="154.736328"/>
     <use xlink:href="#DejaVuSans-76" x="204.736328"/>
     <use xlink:href="#DejaVuSans-6f" x="263.916016"/>
     <use xlink:href="#DejaVuSans-6c" x="325.097656"/>
    </g>
   </g>
   <g id="text_8">
    <!-- sbp -->
    <g transform="translate(1079.324754 225.826863) scale(0.18 -0.18)">
     <defs>
      <path id="DejaVuSans-73" d="M 2834 3397 
L 2834 2853 
Q 2591 2978 2328 3040 
Q 2066 3103 1784 3103 
Q 1356 3103 1142 2972 
Q 928 2841 928 2578 
Q 928 2378 1081 2264 
Q 1234 2150 1697 2047 
L 1894 2003 
Q 2506 1872 2764 1633 
Q 3022 1394 3022 966 
Q 3022 478 2636 193 
Q 2250 -91 1575 -91 
Q 1294 -91 989 -36 
Q 684 19 347 128 
L 347 722 
Q 666 556 975 473 
Q 1284 391 1588 391 
Q 1994 391 2212 530 
Q 2431 669 2431 922 
Q 2431 1156 2273 1281 
Q 2116 1406 1581 1522 
L 1381 1569 
Q 847 1681 609 1914 
Q 372 2147 372 2553 
Q 372 3047 722 3315 
Q 1072 3584 1716 3584 
Q 2034 3584 2315 3537 
Q 2597 3491 2834 3397 
z
" transform="scale(0.015625)"/>
      <path id="DejaVuSans-70" d="M 1159 525 
L 1159 -1331 
L 581 -1331 
L 581 3500 
L 1159 3500 
L 1159 2969 
Q 1341 3281 1617 3432 
Q 1894 3584 2278 3584 
Q 2916 3584 3314 3078 
Q 3713 2572 3713 1747 
Q 3713 922 3314 415 
Q 2916 -91 2278 -91 
Q 1894 -91 1617 61 
Q 1341 213 1159 525 
z
M 3116 1747 
Q 3116 2381 2855 2742 
Q 2594 3103 2138 3103 
Q 1681 3103 1420 2742 
Q 1159 2381 1159 1747 
Q 1159 1113 1420 752 
Q 1681 391 2138 391 
Q 2594 391 2855 752 
Q 3116 1113 3116 1747 
z
" transform="scale(0.015625)"/>
     </defs>
     <use xlink:href="#DejaVuSans-73"/>
     <use xlink:href="#DejaVuSans-62" x="52.099609"/>
     <use xlink:href="#DejaVuSans-70" x="115.576172"/>
    </g>
   </g>
   <g id="text_9">
    <!-- dbp -->
    <g transform="translate(790.55807 149.876483) scale(0.18 -0.18)">
     <use xlink:href="#DejaVuSans-64"/>
     <use xlink:href="#DejaVuSans-62" x="63.476562"/>
     <use xlink:href="#DejaVuSans-70" x="126.953125"/>
    </g>
   </g>
   <g id="text_10">
    <!-- heart_rate_viv -->
    <g transform="translate(416.070867 176.003458) scale(0.18 -0.18)">
     <defs>
      <path id="DejaVuSans-68" d="M 3513 2113 
L 3513 0 
L 2938 0 
L 2938 2094 
Q 2938 2591 2744 2837 
Q 2550 3084 2163 3084 
Q 1697 3084 1428 2787 
Q 1159 2491 1159 1978 
L 1159 0 
L 581 0 
L 581 4863 
L 1159 4863 
L 1159 2956 
Q 1366 3272 1645 3428 
Q 1925 3584 2291 3584 
Q 2894 3584 3203 3211 
Q 3513 2838 3513 2113 
z
" transform="scale(0.015625)"/>
      <path id="DejaVuSans-65" d="M 3597 1894 
L 3597 1613 
L 953 1613 
Q 991 1019 1311 708 
Q 1631 397 2203 397 
Q 2534 397 2845 478 
Q 3156 559 3463 722 
L 3463 178 
Q 3153 47 2828 -22 
Q 2503 -91 2169 -91 
Q 1331 -91 842 396 
Q 353 884 353 1716 
Q 353 2575 817 3079 
Q 1281 3584 2069 3584 
Q 2775 3584 3186 3129 
Q 3597 2675 3597 1894 
z
M 3022 2063 
Q 3016 2534 2758 2815 
Q 2500 3097 2075 3097 
Q 1594 3097 1305 2825 
Q 1016 2553 972 2059 
L 3022 2063 
z
" transform="scale(0.015625)"/>
      <path id="DejaVuSans-61" d="M 2194 1759 
Q 1497 1759 1228 1600 
Q 959 1441 959 1056 
Q 959 750 1161 570 
Q 1363 391 1709 391 
Q 2188 391 2477 730 
Q 2766 1069 2766 1631 
L 2766 1759 
L 2194 1759 
z
M 3341 1997 
L 3341 0 
L 2766 0 
L 2766 531 
Q 2569 213 2275 61 
Q 1981 -91 1556 -91 
Q 1019 -91 701 211 
Q 384 513 384 1019 
Q 384 1609 779 1909 
Q 1175 2209 1959 2209 
L 2766 2209 
L 2766 2266 
Q 2766 2663 2505 2880 
Q 2244 3097 1772 3097 
Q 1472 3097 1187 3025 
Q 903 2953 641 2809 
L 641 3341 
Q 956 3463 1253 3523 
Q 1550 3584 1831 3584 
Q 2591 3584 2966 3190 
Q 3341 2797 3341 1997 
z
" transform="scale(0.015625)"/>
      <path id="DejaVuSans-72" d="M 2631 2963 
Q 2534 3019 2420 3045 
Q 2306 3072 2169 3072 
Q 1681 3072 1420 2755 
Q 1159 2438 1159 1844 
L 1159 0 
L 581 0 
L 581 3500 
L 1159 3500 
L 1159 2956 
Q 1341 3275 1631 3429 
Q 1922 3584 2338 3584 
Q 2397 3584 2469 3576 
Q 2541 3569 2628 3553 
L 2631 2963 
z
" transform="scale(0.015625)"/>
      <path id="DejaVuSans-74" d="M 1172 4494 
L 1172 3500 
L 2356 3500 
L 2356 3053 
L 1172 3053 
L 1172 1153 
Q 1172 725 1289 603 
Q 1406 481 1766 481 
L 2356 481 
L 2356 0 
L 1766 0 
Q 1100 0 847 248 
Q 594 497 594 1153 
L 594 3053 
L 172 3053 
L 172 3500 
L 594 3500 
L 594 4494 
L 1172 4494 
z
" transform="scale(0.015625)"/>
      <path id="DejaVuSans-69" d="M 603 3500 
L 1178 3500 
L 1178 0 
L 603 0 
L 603 3500 
z
M 603 4863 
L 1178 4863 
L 1178 4134 
L 603 4134 
L 603 4863 
z
" transform="scale(0.015625)"/>
     </defs>
     <use xlink:href="#DejaVuSans-68"/>
     <use xlink:href="#DejaVuSans-65" x="63.378906"/>
     <use xlink:href="#DejaVuSans-61" x="124.902344"/>
     <use xlink:href="#DejaVuSans-72" x="186.181641"/>
     <use xlink:href="#DejaVuSans-74" x="227.294922"/>
     <use xlink:href="#DejaVuSans-5f" x="266.503906"/>
     <use xlink:href="#DejaVuSans-72" x="316.503906"/>
     <use xlink:href="#DejaVuSans-61" x="357.617188"/>
     <use xlink:href="#DejaVuSans-74" x="418.896484"/>
     <use xlink:href="#DejaVuSans-65" x="458.105469"/>
     <use xlink:href="#DejaVuSans-5f" x="519.628906"/>
     <use xlink:href="#DejaVuSans-76" x="569.628906"/>
     <use xlink:href="#DejaVuSans-69" x="628.808594"/>
     <use xlink:href="#DejaVuSans-76" x="656.591797"/>
    </g>
   </g>
   <g id="text_11">
    <!-- resp_rate_viv -->
    <g transform="translate(207.049104 292.366169) scale(0.18 -0.18)">
     <use xlink:href="#DejaVuSans-72"/>
     <use xlink:href="#DejaVuSans-65" x="38.863281"/>
     <use xlink:href="#DejaVuSans-73" x="100.386719"/>
     <use xlink:href="#DejaVuSans-70" x="152.486328"/>
     <use xlink:href="#DejaVuSans-5f" x="215.962891"/>
     <use xlink:href="#DejaVuSans-72" x="265.962891"/>
     <use xlink:href="#DejaVuSans-61" x="307.076172"/>
     <use xlink:href="#DejaVuSans-74" x="368.355469"/>
     <use xlink:href="#DejaVuSans-65" x="407.564453"/>
     <use xlink:href="#DejaVuSans-5f" x="469.087891"/>
     <use xlink:href="#DejaVuSans-76" x="519.087891"/>
     <use xlink:href="#DejaVuSans-69" x="578.267578"/>
     <use xlink:href="#DejaVuSans-76" x="606.050781"/>
    </g>
   </g>
   <g id="text_12">
    <!-- eda -->
    <g transform="translate(250.154885 444.517255) scale(0.18 -0.18)">
     <use xlink:href="#DejaVuSans-65"/>
     <use xlink:href="#DejaVuSans-64" x="61.523438"/>
     <use xlink:href="#DejaVuSans-61" x="125"/>
    </g>
   </g>
   <g id="text_13">
    <!-- tmp_skin -->
    <g transform="translate(439.878752 560.62968) scale(0.18 -0.18)">
     <defs>
      <path id="DejaVuSans-6d" d="M 3328 2828 
Q 3544 3216 3844 3400 
Q 4144 3584 4550 3584 
Q 5097 3584 5394 3201 
Q 5691 2819 5691 2113 
L 5691 0 
L 5113 0 
L 5113 2094 
Q 5113 2597 4934 2840 
Q 4756 3084 4391 3084 
Q 3944 3084 3684 2787 
Q 3425 2491 3425 1978 
L 3425 0 
L 2847 0 
L 2847 2094 
Q 2847 2600 2669 2842 
Q 2491 3084 2119 3084 
Q 1678 3084 1418 2786 
Q 1159 2488 1159 1978 
L 1159 0 
L 581 0 
L 581 3500 
L 1159 3500 
L 1159 2956 
Q 1356 3278 1631 3431 
Q 1906 3584 2284 3584 
Q 2666 3584 2933 3390 
Q 3200 3197 3328 2828 
z
" transform="scale(0.015625)"/>
      <path id="DejaVuSans-6b" d="M 581 4863 
L 1159 4863 
L 1159 1991 
L 2875 3500 
L 3609 3500 
L 1753 1863 
L 3688 0 
L 2938 0 
L 1159 1709 
L 1159 0 
L 581 0 
L 581 4863 
z
" transform="scale(0.015625)"/>
      <path id="DejaVuSans-6e" d="M 3513 2113 
L 3513 0 
L 2938 0 
L 2938 2094 
Q 2938 2591 2744 2837 
Q 2550 3084 2163 3084 
Q 1697 3084 1428 2787 
Q 1159 2491 1159 1978 
L 1159 0 
L 581 0 
L 581 3500 
L 1159 3500 
L 1159 2956 
Q 1366 3272 1645 3428 
Q 1925 3584 2291 3584 
Q 2894 3584 3203 3211 
Q 3513 2838 3513 2113 
z
" transform="scale(0.015625)"/>
     </defs>
     <use xlink:href="#DejaVuSans-74"/>
     <use xlink:href="#DejaVuSans-6d" x="39.208984"/>
     <use xlink:href="#DejaVuSans-70" x="136.621094"/>
     <use xlink:href="#DejaVuSans-5f" x="200.097656"/>
     <use xlink:href="#DejaVuSans-73" x="250.097656"/>
     <use xlink:href="#DejaVuSans-6b" x="302.197266"/>
     <use xlink:href="#DejaVuSans-69" x="360.107422"/>
     <use xlink:href="#DejaVuSans-6e" x="387.890625"/>
    </g>
   </g>
   <g id="text_14">
    <!-- hrt_var_ecg -->
    <g transform="translate(755.024916 587.006955) scale(0.18 -0.18)">
     <defs>
      <path id="DejaVuSans-63" d="M 3122 3366 
L 3122 2828 
Q 2878 2963 2633 3030 
Q 2388 3097 2138 3097 
Q 1578 3097 1268 2742 
Q 959 2388 959 1747 
Q 959 1106 1268 751 
Q 1578 397 2138 397 
Q 2388 397 2633 464 
Q 2878 531 3122 666 
L 3122 134 
Q 2881 22 2623 -34 
Q 2366 -91 2075 -91 
Q 1284 -91 818 406 
Q 353 903 353 1747 
Q 353 2603 823 3093 
Q 1294 3584 2113 3584 
Q 2378 3584 2631 3529 
Q 2884 3475 3122 3366 
z
" transform="scale(0.015625)"/>
      <path id="DejaVuSans-67" d="M 2906 1791 
Q 2906 2416 2648 2759 
Q 2391 3103 1925 3103 
Q 1463 3103 1205 2759 
Q 947 2416 947 1791 
Q 947 1169 1205 825 
Q 1463 481 1925 481 
Q 2391 481 2648 825 
Q 2906 1169 2906 1791 
z
M 3481 434 
Q 3481 -459 3084 -895 
Q 2688 -1331 1869 -1331 
Q 1566 -1331 1297 -1286 
Q 1028 -1241 775 -1147 
L 775 -588 
Q 1028 -725 1275 -790 
Q 1522 -856 1778 -856 
Q 2344 -856 2625 -561 
Q 2906 -266 2906 331 
L 2906 616 
Q 2728 306 2450 153 
Q 2172 0 1784 0 
Q 1141 0 747 490 
Q 353 981 353 1791 
Q 353 2603 747 3093 
Q 1141 3584 1784 3584 
Q 2172 3584 2450 3431 
Q 2728 3278 2906 2969 
L 2906 3500 
L 3481 3500 
L 3481 434 
z
" transform="scale(0.015625)"/>
     </defs>
     <use xlink:href="#DejaVuSans-68"/>
     <use xlink:href="#DejaVuSans-72" x="63.378906"/>
     <use xlink:href="#DejaVuSans-74" x="104.492188"/>
     <use xlink:href="#DejaVuSans-5f" x="143.701172"/>
     <use xlink:href="#DejaVuSans-76" x="193.701172"/>
     <use xlink:href="#DejaVuSans-61" x="252.880859"/>
     <use xlink:href="#DejaVuSans-72" x="314.160156"/>
     <use xlink:href="#DejaVuSans-5f" x="355.273438"/>
     <use xlink:href="#DejaVuSans-65" x="405.273438"/>
     <use xlink:href="#DejaVuSans-63" x="466.796875"/>
     <use xlink:href="#DejaVuSans-67" x="521.777344"/>
    </g>
   </g>
   <g id="text_15">
    <!-- spo2 -->
    <g transform="translate(1073.805165 511.306927) scale(0.18 -0.18)">
     <defs>
      <path id="DejaVuSans-32" d="M 1228 531 
L 3431 531 
L 3431 0 
L 469 0 
L 469 531 
Q 828 903 1448 1529 
Q 2069 2156 2228 2338 
Q 2531 2678 2651 2914 
Q 2772 3150 2772 3378 
Q 2772 3750 2511 3984 
Q 2250 4219 1831 4219 
Q 1534 4219 1204 4116 
Q 875 4013 500 3803 
L 500 4441 
Q 881 4594 1212 4672 
Q 1544 4750 1819 4750 
Q 2544 4750 2975 4387 
Q 3406 4025 3406 3419 
Q 3406 3131 3298 2873 
Q 3191 2616 2906 2266 
Q 2828 2175 2409 1742 
Q 1991 1309 1228 531 
z
" transform="scale(0.015625)"/>
     </defs>
     <use xlink:href="#DejaVuSans-73"/>
     <use xlink:href="#DejaVuSans-70" x="52.099609"/>
     <use xlink:href="#DejaVuSans-6f" x="115.576172"/>
     <use xlink:href="#DejaVuSans-32" x="176.757812"/>
    </g>
   </g>
  </g>
 </g>
 <defs>
  <clipPath id="pb091f92b54">
   <rect x="180" y="86.4" width="1116" height="554.4"/>
  </clipPath>
 </defs>
</svg>
