<?xml version="1.0" encoding="utf-8" standalone="no"?>
<!DOCTYPE svg PUBLIC "-//W3C//DTD SVG 1.1//EN"
  "http://www.w3.org/Graphics/SVG/1.1/DTD/svg11.dtd">
<svg xmlns:xlink="http://www.w3.org/1999/xlink" width="1440pt" height="720pt" viewBox="0 0 1440 720" xmlns="http://www.w3.org/2000/svg" version="1.1">
 <metadata>
  <rdf:RDF xmlns:dc="http://purl.org/dc/elements/1.1/" xmlns:cc="http://creativecommons.org/ns#" xmlns:rdf="http://www.w3.org/1999/02/22-rdf-syntax-ns#">
   <cc:Work>
    <dc:type rdf:resource="http://purl.org/dc/dcmitype/StillImage"/>
    <dc:date>2023-07-26T02:15:14.744254</dc:date>
    <dc:format>image/svg+xml</dc:format>
    <dc:creator>
     <cc:Agent>
      <dc:title>Matplotlib v3.7.0, https://matplotlib.org/</dc:title>
     </cc:Agent>
    </dc:creator>
   </cc:Work>
  </rdf:RDF>
 </metadata>
 <defs>
  <style type="text/css">*{stroke-linejoin: round; stroke-linecap: butt}</style>
 </defs>
 <g id="figure_1">
  <g id="patch_1">
   <path d="M 0 720 
L 1440 720 
L 1440 0 
L 0 0 
z
" style="fill: #ffffff"/>
  </g>
  <g id="axes_1">
   <g id="PathCollection_1">
    <defs>
     <path id="mf188cf8c46" d="M 0 3 
C 0.795609 3 1.55874 2.683901 2.12132 2.12132 
C 2.683901 1.55874 3 0.795609 3 0 
C 3 -0.795609 2.683901 -1.55874 2.12132 -2.12132 
C 1.55874 -2.683901 0.795609 -3 0 -3 
C -0.795609 -3 -1.55874 -2.683901 -2.12132 -2.12132 
C -2.683901 -1.55874 -3 -0.795609 -3 0 
C -3 0.795609 -2.683901 1.55874 -2.12132 2.12132 
C -1.55874 2.683901 -0.795609 3 0 3 
z
" style="stroke: #1f77b4; stroke-opacity: 0"/>
    </defs>
    <g clip-path="url(#pce9eaf4610)">
     <use xlink:href="#mf188cf8c46" x="723.353601" y="363.600004" style="fill: #1f77b4; fill-opacity: 0; stroke: #1f77b4; stroke-opacity: 0"/>
    </g>
   </g>
   <g id="patch_2">
    <path d="M 1187.41927 336.394106 
Q 1152.257723 292.227903 1117.096176 248.061701 
" style="fill: none; opacity: 0"/>
   </g>
   <g id="PathCollection_2">
    <defs>
     <path id="m839800fec0" d="M 0 3 
C 0.795609 3 1.55874 2.683901 2.12132 2.12132 
C 2.683901 1.55874 3 0.795609 3 0 
C 3 -0.795609 2.683901 -1.55874 2.12132 -2.12132 
C 1.55874 -2.683901 0.795609 -3 0 -3 
C -0.795609 -3 -1.55874 -2.683901 -2.12132 -2.12132 
C -2.683901 -1.55874 -3 -0.795609 -3 0 
C -3 0.795609 -2.683901 1.55874 -2.12132 2.12132 
C -1.55874 2.683901 -0.795609 3 0 3 
z
" style="stroke: #ff7f0e; stroke-opacity: 0"/>
    </defs>
    <g clip-path="url(#pce9eaf4610)">
     <use xlink:href="#m839800fec0" x="1187.677579" y="336.718566" style="fill: #ff7f0e; fill-opacity: 0; stroke: #ff7f0e; stroke-opacity: 0"/>
    </g>
   </g>
   <g id="patch_3">
    <path d="M 1209.078396 396.909608 
C 1218.677245 396.909608 1227.884242 393.399897 1234.671653 387.153449 
C 1241.459064 380.907002 1245.272727 372.433811 1245.272727 363.6 
C 1245.272727 354.766189 1241.459064 346.292998 1234.671653 340.046551 
C 1227.884242 333.800103 1218.677245 330.290392 1209.078396 330.290392 
C 1199.479547 330.290392 1190.27255 333.800103 1183.485139 340.046551 
C 1176.697727 346.292998 1172.884064 354.766189 1172.884064 363.6 
C 1172.884064 372.433811 1176.697727 380.907002 1183.485139 387.153449 
C 1190.27255 393.399897 1199.479547 396.909608 1209.078396 396.909608 
z
" style="fill: #d3d3d3; stroke: #d3d3d3; stroke-linejoin: miter"/>
   </g>
   <g id="patch_4">
    <path d="M 1095.440379 254.169596 
C 1105.039228 254.169596 1114.246225 250.659885 1121.033636 244.413437 
C 1127.821048 238.16699 1131.634711 229.693799 1131.634711 220.859988 
C 1131.634711 212.026177 1127.821048 203.552986 1121.033636 197.306539 
C 1114.246225 191.060091 1105.039228 187.55038 1095.440379 187.55038 
C 1085.84153 187.55038 1076.634533 191.060091 1069.847122 197.306539 
C 1063.059711 203.552986 1059.246048 212.026177 1059.246048 220.859988 
C 1059.246048 229.693799 1063.059711 238.16699 1069.847122 244.413437 
C 1076.634533 250.659885 1085.84153 254.169596 1095.440379 254.169596 
z
" style="fill: #d3d3d3; stroke: #d3d3d3; stroke-linejoin: miter"/>
   </g>
   <g id="patch_5">
    <path d="M 807.698851 178.219215 
C 817.2977 178.219215 826.504697 174.709505 833.292109 168.463057 
C 840.07952 162.216609 843.893183 153.743419 843.893183 144.909608 
C 843.893183 136.075796 840.07952 127.602606 833.292109 121.356158 
C 826.504697 115.10971 817.2977 111.6 807.698851 111.6 
C 798.100002 111.6 788.893005 115.10971 782.105594 121.356158 
C 775.318183 127.602606 771.50452 136.075796 771.50452 144.909608 
C 771.50452 153.743419 775.318183 162.216609 782.105594 168.463057 
C 788.893005 174.709505 798.100002 178.219215 807.698851 178.219215 
z
" style="fill: #d3d3d3; stroke: #d3d3d3; stroke-linejoin: miter"/>
   </g>
   <g id="patch_6">
    <path d="M 480.49118 204.596503 
C 490.090029 204.596503 499.297026 201.086793 506.084437 194.840345 
C 512.871848 188.593897 516.685511 180.120707 516.685511 171.286895 
C 516.685511 162.453084 512.871848 153.979894 506.084437 147.733446 
C 499.297026 141.486998 490.090029 137.977288 480.49118 137.977288 
C 470.892331 137.977288 461.685334 141.486998 454.897922 147.733446 
C 448.110511 153.979894 444.296848 162.453084 444.296848 171.286895 
C 444.296848 180.120707 448.110511 188.593897 454.897922 194.840345 
C 461.685334 201.086793 470.892331 204.596503 480.49118 204.596503 
z
" style="fill: #d3d3d3; stroke: #d3d3d3; stroke-linejoin: miter"/>
   </g>
   <g id="patch_7">
    <path d="M 266.921604 320.959214 
C 276.520453 320.959214 285.72745 317.449504 292.514861 311.203056 
C 299.302273 304.956608 303.115936 296.483418 303.115936 287.649606 
C 303.115936 278.815795 299.302273 270.342605 292.514861 264.096157 
C 285.72745 257.849709 276.520453 254.339999 266.921604 254.339999 
C 257.322755 254.339999 248.115758 257.849709 241.328347 264.096157 
C 234.540936 270.342605 230.727273 278.815795 230.727273 287.649606 
C 230.727273 296.483418 234.540936 304.956608 241.328347 311.203056 
C 248.115758 317.449504 257.322755 320.959214 266.921604 320.959214 
z
" style="fill: #d3d3d3; stroke: #d3d3d3; stroke-linejoin: miter"/>
   </g>
   <g id="patch_8">
    <path d="M 266.921604 472.859988 
C 276.520453 472.859988 285.72745 469.350278 292.514861 463.10383 
C 299.302273 456.857382 303.115936 448.384192 303.115936 439.55038 
C 303.115936 430.716569 299.302273 422.243379 292.514861 415.996931 
C 285.72745 409.750483 276.520453 406.240773 266.921604 406.240773 
C 257.322755 406.240773 248.115758 409.750483 241.328347 415.996931 
C 234.540936 422.243379 230.727273 430.716569 230.727273 439.55038 
C 230.727273 448.384192 234.540936 456.857382 241.328347 463.10383 
C 248.115758 469.350278 257.322755 472.859988 266.921604 472.859988 
z
" style="fill: #d3d3d3; stroke: #d3d3d3; stroke-linejoin: miter"/>
   </g>
   <g id="patch_9">
    <path d="M 480.491252 589.222725 
C 490.090101 589.222725 499.297098 585.713015 506.084509 579.466567 
C 512.87192 573.220119 516.685584 564.746929 516.685584 555.913118 
C 516.685584 547.079307 512.87192 538.606116 506.084509 532.359668 
C 499.297098 526.113221 490.090101 522.60351 480.491252 522.60351 
C 470.892403 522.60351 461.685406 526.113221 454.897995 532.359668 
C 448.110584 538.606116 444.296921 547.079307 444.296921 555.913118 
C 444.296921 564.746929 448.110584 573.220119 454.897995 579.466567 
C 461.685406 585.713015 470.892403 589.222725 480.491252 589.222725 
z
" style="fill: #d3d3d3; stroke: #d3d3d3; stroke-linejoin: miter"/>
   </g>
   <g id="patch_10">
    <path d="M 807.698822 615.6 
C 817.297671 615.6 826.504669 612.09029 833.29208 605.843842 
C 840.079491 599.597394 843.893154 591.124204 843.893154 582.290392 
C 843.893154 573.456581 840.079491 564.983391 833.29208 558.736943 
C 826.504669 552.490495 817.297671 548.980785 807.698822 548.980785 
C 798.099974 548.980785 788.892976 552.490495 782.105565 558.736943 
C 775.318154 564.983391 771.504491 573.456581 771.504491 582.290392 
C 771.504491 591.124204 775.318154 599.597394 782.105565 605.843842 
C 788.892976 612.09029 798.099974 615.6 807.698822 615.6 
z
" style="fill: #d3d3d3; stroke: #d3d3d3; stroke-linejoin: miter"/>
   </g>
   <g id="patch_11">
    <path d="M 1095.440321 539.649659 
C 1105.03917 539.649659 1114.246167 536.139949 1121.033579 529.893501 
C 1127.82099 523.647053 1131.634653 515.173863 1131.634653 506.340052 
C 1131.634653 497.50624 1127.82099 489.03305 1121.033579 482.786602 
C 1114.246167 476.540154 1105.03917 473.030444 1095.440321 473.030444 
C 1085.841472 473.030444 1076.634475 476.540154 1069.847064 482.786602 
C 1063.059653 489.03305 1059.24599 497.50624 1059.24599 506.340052 
C 1059.24599 515.173863 1063.059653 523.647053 1069.847064 529.893501 
C 1076.634475 536.139949 1085.841472 539.649659 1095.440321 539.649659 
z
" style="fill: #d3d3d3; stroke: #d3d3d3; stroke-linejoin: miter"/>
   </g>
   <g id="patch_12">
    <path d="M 1184.289879 338.885473 
Q 1154.110481 300.977317 1123.931083 263.069162 
L 1120.801692 265.560529 
Q 1118.948934 256.811115 1117.096176 248.061701 
Q 1125.207716 251.82838 1133.319256 255.59506 
L 1130.189865 258.086427 
Q 1160.369263 295.994583 1190.548661 333.902738 
L 1184.289879 338.885473 
z
" style="opacity: 0"/>
   </g>
   <g id="matplotlib.axis_1"/>
   <g id="matplotlib.axis_2"/>
   <g id="text_1">
    <!-- bld_vol -->
    <g transform="translate(1177.316833 368.316562) scale(0.18 -0.18)">
     <defs>
      <path id="DejaVuSans-62" d="M 3116 1747 
Q 3116 2381 2855 2742 
Q 2594 3103 2138 3103 
Q 1681 3103 1420 2742 
Q 1159 2381 1159 1747 
Q 1159 1113 1420 752 
Q 1681 391 2138 391 
Q 2594 391 2855 752 
Q 3116 1113 3116 1747 
z
M 1159 2969 
Q 1341 3281 1617 3432 
Q 1894 3584 2278 3584 
Q 2916 3584 3314 3078 
Q 3713 2572 3713 1747 
Q 3713 922 3314 415 
Q 2916 -91 2278 -91 
Q 1894 -91 1617 61 
Q 1341 213 1159 525 
L 1159 0 
L 581 0 
L 581 4863 
L 1159 4863 
L 1159 2969 
z
" transform="scale(0.015625)"/>
      <path id="DejaVuSans-6c" d="M 603 4863 
L 1178 4863 
L 1178 0 
L 603 0 
L 603 4863 
z
" transform="scale(0.015625)"/>
      <path id="DejaVuSans-64" d="M 2906 2969 
L 2906 4863 
L 3481 4863 
L 3481 0 
L 2906 0 
L 2906 525 
Q 2725 213 2448 61 
Q 2172 -91 1784 -91 
Q 1150 -91 751 415 
Q 353 922 353 1747 
Q 353 2572 751 3078 
Q 1150 3584 1784 3584 
Q 2172 3584 2448 3432 
Q 2725 3281 2906 2969 
z
M 947 1747 
Q 947 1113 1208 752 
Q 1469 391 1925 391 
Q 2381 391 2643 752 
Q 2906 1113 2906 1747 
Q 2906 2381 2643 2742 
Q 2381 3103 1925 3103 
Q 1469 3103 1208 2742 
Q 947 2381 947 1747 
z
" transform="scale(0.015625)"/>
      <path id="DejaVuSans-5f" d="M 3263 -1063 
L 3263 -1509 
L -63 -1509 
L -63 -1063 
L 3263 -1063 
z
" transform="scale(0.015625)"/>
      <path id="DejaVuSans-76" d="M 191 3500 
L 800 3500 
L 1894 563 
L 2988 3500 
L 3597 3500 
L 2284 0 
L 1503 0 
L 191 3500 
z
" transform="scale(0.015625)"/>
      <path id="DejaVuSans-6f" d="M 1959 3097 
Q 1497 3097 1228 2736 
Q 959 2375 959 1747 
Q 959 1119 1226 758 
Q 1494 397 1959 397 
Q 2419 397 2687 759 
Q 2956 1122 2956 1747 
Q 2956 2369 2687 2733 
Q 2419 3097 1959 3097 
z
M 1959 3584 
Q 2709 3584 3137 3096 
Q 3566 2609 3566 1747 
Q 3566 888 3137 398 
Q 2709 -91 1959 -91 
Q 1206 -91 779 398 
Q 353 888 353 1747 
Q 353 2609 779 3096 
Q 1206 3584 1959 3584 
z
" transform="scale(0.015625)"/>
     </defs>
     <use xlink:href="#DejaVuSans-62"/>
     <use xlink:href="#DejaVuSans-6c" x="63.476562"/>
     <use xlink:href="#DejaVuSans-64" x="91.259766"/>
     <use xlink:href="#DejaVuSans-5f" x="154.736328"/>
     <use xlink:href="#DejaVuSans-76" x="204.736328"/>
     <use xlink:href="#DejaVuSans-6f" x="263.916016"/>
     <use xlink:href="#DejaVuSans-6c" x="325.097656"/>
    </g>
   </g>
   <g id="text_2">
    <!-- sbp -->
    <g transform="translate(1079.324754 225.826863) scale(0.18 -0.18)">
     <defs>
      <path id="DejaVuSans-73" d="M 2834 3397 
L 2834 2853 
Q 2591 2978 2328 3040 
Q 2066 3103 1784 3103 
Q 1356 3103 1142 2972 
Q 928 2841 928 2578 
Q 928 2378 1081 2264 
Q 1234 2150 1697 2047 
L 1894 2003 
Q 2506 1872 2764 1633 
Q 3022 1394 3022 966 
Q 3022 478 2636 193 
Q 2250 -91 1575 -91 
Q 1294 -91 989 -36 
Q 684 19 347 128 
L 347 722 
Q 666 556 975 473 
Q 1284 391 1588 391 
Q 1994 391 2212 530 
Q 2431 669 2431 922 
Q 2431 1156 2273 1281 
Q 2116 1406 1581 1522 
L 1381 1569 
Q 847 1681 609 1914 
Q 372 2147 372 2553 
Q 372 3047 722 3315 
Q 1072 3584 1716 3584 
Q 2034 3584 2315 3537 
Q 2597 3491 2834 3397 
z
" transform="scale(0.015625)"/>
      <path id="DejaVuSans-70" d="M 1159 525 
L 1159 -1331 
L 581 -1331 
L 581 3500 
L 1159 3500 
L 1159 2969 
Q 1341 3281 1617 3432 
Q 1894 3584 2278 3584 
Q 2916 3584 3314 3078 
Q 3713 2572 3713 1747 
Q 3713 922 3314 415 
Q 2916 -91 2278 -91 
Q 1894 -91 1617 61 
Q 1341 213 1159 525 
z
M 3116 1747 
Q 3116 2381 2855 2742 
Q 2594 3103 2138 3103 
Q 1681 3103 1420 2742 
Q 1159 2381 1159 1747 
Q 1159 1113 1420 752 
Q 1681 391 2138 391 
Q 2594 391 2855 752 
Q 3116 1113 3116 1747 
z
" transform="scale(0.015625)"/>
     </defs>
     <use xlink:href="#DejaVuSans-73"/>
     <use xlink:href="#DejaVuSans-62" x="52.099609"/>
     <use xlink:href="#DejaVuSans-70" x="115.576172"/>
    </g>
   </g>
   <g id="text_3">
    <!-- dbp -->
    <g transform="translate(790.55807 149.876483) scale(0.18 -0.18)">
     <use xlink:href="#DejaVuSans-64"/>
     <use xlink:href="#DejaVuSans-62" x="63.476562"/>
     <use xlink:href="#DejaVuSans-70" x="126.953125"/>
    </g>
   </g>
   <g id="text_4">
    <!-- heart_rate_viv -->
    <g transform="translate(416.070867 176.003458) scale(0.18 -0.18)">
     <defs>
      <path id="DejaVuSans-68" d="M 3513 2113 
L 3513 0 
L 2938 0 
L 2938 2094 
Q 2938 2591 2744 2837 
Q 2550 3084 2163 3084 
Q 1697 3084 1428 2787 
Q 1159 2491 1159 1978 
L 1159 0 
L 581 0 
L 581 4863 
L 1159 4863 
L 1159 2956 
Q 1366 3272 1645 3428 
Q 1925 3584 2291 3584 
Q 2894 3584 3203 3211 
Q 3513 2838 3513 2113 
z
" transform="scale(0.015625)"/>
      <path id="DejaVuSans-65" d="M 3597 1894 
L 3597 1613 
L 953 1613 
Q 991 1019 1311 708 
Q 1631 397 2203 397 
Q 2534 397 2845 478 
Q 3156 559 3463 722 
L 3463 178 
Q 3153 47 2828 -22 
Q 2503 -91 2169 -91 
Q 1331 -91 842 396 
Q 353 884 353 1716 
Q 353 2575 817 3079 
Q 1281 3584 2069 3584 
Q 2775 3584 3186 3129 
Q 3597 2675 3597 1894 
z
M 3022 2063 
Q 3016 2534 2758 2815 
Q 2500 3097 2075 3097 
Q 1594 3097 1305 2825 
Q 1016 2553 972 2059 
L 3022 2063 
z
" transform="scale(0.015625)"/>
      <path id="DejaVuSans-61" d="M 2194 1759 
Q 1497 1759 1228 1600 
Q 959 1441 959 1056 
Q 959 750 1161 570 
Q 1363 391 1709 391 
Q 2188 391 2477 730 
Q 2766 1069 2766 1631 
L 2766 1759 
L 2194 1759 
z
M 3341 1997 
L 3341 0 
L 2766 0 
L 2766 531 
Q 2569 213 2275 61 
Q 1981 -91 1556 -91 
Q 1019 -91 701 211 
Q 384 513 384 1019 
Q 384 1609 779 1909 
Q 1175 2209 1959 2209 
L 2766 2209 
L 2766 2266 
Q 2766 2663 2505 2880 
Q 2244 3097 1772 3097 
Q 1472 3097 1187 3025 
Q 903 2953 641 2809 
L 641 3341 
Q 956 3463 1253 3523 
Q 1550 3584 1831 3584 
Q 2591 3584 2966 3190 
Q 3341 2797 3341 1997 
z
" transform="scale(0.015625)"/>
      <path id="DejaVuSans-72" d="M 2631 2963 
Q 2534 3019 2420 3045 
Q 2306 3072 2169 3072 
Q 1681 3072 1420 2755 
Q 1159 2438 1159 1844 
L 1159 0 
L 581 0 
L 581 3500 
L 1159 3500 
L 1159 2956 
Q 1341 3275 1631 3429 
Q 1922 3584 2338 3584 
Q 2397 3584 2469 3576 
Q 2541 3569 2628 3553 
L 2631 2963 
z
" transform="scale(0.015625)"/>
      <path id="DejaVuSans-74" d="M 1172 4494 
L 1172 3500 
L 2356 3500 
L 2356 3053 
L 1172 3053 
L 1172 1153 
Q 1172 725 1289 603 
Q 1406 481 1766 481 
L 2356 481 
L 2356 0 
L 1766 0 
Q 1100 0 847 248 
Q 594 497 594 1153 
L 594 3053 
L 172 3053 
L 172 3500 
L 594 3500 
L 594 4494 
L 1172 4494 
z
" transform="scale(0.015625)"/>
      <path id="DejaVuSans-69" d="M 603 3500 
L 1178 3500 
L 1178 0 
L 603 0 
L 603 3500 
z
M 603 4863 
L 1178 4863 
L 1178 4134 
L 603 4134 
L 603 4863 
z
" transform="scale(0.015625)"/>
     </defs>
     <use xlink:href="#DejaVuSans-68"/>
     <use xlink:href="#DejaVuSans-65" x="63.378906"/>
     <use xlink:href="#DejaVuSans-61" x="124.902344"/>
     <use xlink:href="#DejaVuSans-72" x="186.181641"/>
     <use xlink:href="#DejaVuSans-74" x="227.294922"/>
     <use xlink:href="#DejaVuSans-5f" x="266.503906"/>
     <use xlink:href="#DejaVuSans-72" x="316.503906"/>
     <use xlink:href="#DejaVuSans-61" x="357.617188"/>
     <use xlink:href="#DejaVuSans-74" x="418.896484"/>
     <use xlink:href="#DejaVuSans-65" x="458.105469"/>
     <use xlink:href="#DejaVuSans-5f" x="519.628906"/>
     <use xlink:href="#DejaVuSans-76" x="569.628906"/>
     <use xlink:href="#DejaVuSans-69" x="628.808594"/>
     <use xlink:href="#DejaVuSans-76" x="656.591797"/>
    </g>
   </g>
   <g id="text_5">
    <!-- resp_rate_viv -->
    <g transform="translate(207.049104 292.366169) scale(0.18 -0.18)">
     <use xlink:href="#DejaVuSans-72"/>
     <use xlink:href="#DejaVuSans-65" x="38.863281"/>
     <use xlink:href="#DejaVuSans-73" x="100.386719"/>
     <use xlink:href="#DejaVuSans-70" x="152.486328"/>
     <use xlink:href="#DejaVuSans-5f" x="215.962891"/>
     <use xlink:href="#DejaVuSans-72" x="265.962891"/>
     <use xlink:href="#DejaVuSans-61" x="307.076172"/>
     <use xlink:href="#DejaVuSans-74" x="368.355469"/>
     <use xlink:href="#DejaVuSans-65" x="407.564453"/>
     <use xlink:href="#DejaVuSans-5f" x="469.087891"/>
     <use xlink:href="#DejaVuSans-76" x="519.087891"/>
     <use xlink:href="#DejaVuSans-69" x="578.267578"/>
     <use xlink:href="#DejaVuSans-76" x="606.050781"/>
    </g>
   </g>
   <g id="text_6">
    <!-- eda -->
    <g transform="translate(250.154885 444.517255) scale(0.18 -0.18)">
     <use xlink:href="#DejaVuSans-65"/>
     <use xlink:href="#DejaVuSans-64" x="61.523438"/>
     <use xlink:href="#DejaVuSans-61" x="125"/>
    </g>
   </g>
   <g id="text_7">
    <!-- tmp_core -->
    <g transform="translate(438.49219 560.379368) scale(0.18 -0.18)">
     <defs>
      <path id="DejaVuSans-6d" d="M 3328 2828 
Q 3544 3216 3844 3400 
Q 4144 3584 4550 3584 
Q 5097 3584 5394 3201 
Q 5691 2819 5691 2113 
L 5691 0 
L 5113 0 
L 5113 2094 
Q 5113 2597 4934 2840 
Q 4756 3084 4391 3084 
Q 3944 3084 3684 2787 
Q 3425 2491 3425 1978 
L 3425 0 
L 2847 0 
L 2847 2094 
Q 2847 2600 2669 2842 
Q 2491 3084 2119 3084 
Q 1678 3084 1418 2786 
Q 1159 2488 1159 1978 
L 1159 0 
L 581 0 
L 581 3500 
L 1159 3500 
L 1159 2956 
Q 1356 3278 1631 3431 
Q 1906 3584 2284 3584 
Q 2666 3584 2933 3390 
Q 3200 3197 3328 2828 
z
" transform="scale(0.015625)"/>
      <path id="DejaVuSans-63" d="M 3122 3366 
L 3122 2828 
Q 2878 2963 2633 3030 
Q 2388 3097 2138 3097 
Q 1578 3097 1268 2742 
Q 959 2388 959 1747 
Q 959 1106 1268 751 
Q 1578 397 2138 397 
Q 2388 397 2633 464 
Q 2878 531 3122 666 
L 3122 134 
Q 2881 22 2623 -34 
Q 2366 -91 2075 -91 
Q 1284 -91 818 406 
Q 353 903 353 1747 
Q 353 2603 823 3093 
Q 1294 3584 2113 3584 
Q 2378 3584 2631 3529 
Q 2884 3475 3122 3366 
z
" transform="scale(0.015625)"/>
     </defs>
     <use xlink:href="#DejaVuSans-74"/>
     <use xlink:href="#DejaVuSans-6d" x="39.208984"/>
     <use xlink:href="#DejaVuSans-70" x="136.621094"/>
     <use xlink:href="#DejaVuSans-5f" x="200.097656"/>
     <use xlink:href="#DejaVuSans-63" x="250.097656"/>
     <use xlink:href="#DejaVuSans-6f" x="305.078125"/>
     <use xlink:href="#DejaVuSans-72" x="366.259766"/>
     <use xlink:href="#DejaVuSans-65" x="405.123047"/>
    </g>
   </g>
   <g id="text_8">
    <!-- hrt_var_ecg -->
    <g transform="translate(755.024916 587.006955) scale(0.18 -0.18)">
     <defs>
      <path id="DejaVuSans-67" d="M 2906 1791 
Q 2906 2416 2648 2759 
Q 2391 3103 1925 3103 
Q 1463 3103 1205 2759 
Q 947 2416 947 1791 
Q 947 1169 1205 825 
Q 1463 481 1925 481 
Q 2391 481 2648 825 
Q 2906 1169 2906 1791 
z
M 3481 434 
Q 3481 -459 3084 -895 
Q 2688 -1331 1869 -1331 
Q 1566 -1331 1297 -1286 
Q 1028 -1241 775 -1147 
L 775 -588 
Q 1028 -725 1275 -790 
Q 1522 -856 1778 -856 
Q 2344 -856 2625 -561 
Q 2906 -266 2906 331 
L 2906 616 
Q 2728 306 2450 153 
Q 2172 0 1784 0 
Q 1141 0 747 490 
Q 353 981 353 1791 
Q 353 2603 747 3093 
Q 1141 3584 1784 3584 
Q 2172 3584 2450 3431 
Q 2728 3278 2906 2969 
L 2906 3500 
L 3481 3500 
L 3481 434 
z
" transform="scale(0.015625)"/>
     </defs>
     <use xlink:href="#DejaVuSans-68"/>
     <use xlink:href="#DejaVuSans-72" x="63.378906"/>
     <use xlink:href="#DejaVuSans-74" x="104.492188"/>
     <use xlink:href="#DejaVuSans-5f" x="143.701172"/>
     <use xlink:href="#DejaVuSans-76" x="193.701172"/>
     <use xlink:href="#DejaVuSans-61" x="252.880859"/>
     <use xlink:href="#DejaVuSans-72" x="314.160156"/>
     <use xlink:href="#DejaVuSans-5f" x="355.273438"/>
     <use xlink:href="#DejaVuSans-65" x="405.273438"/>
     <use xlink:href="#DejaVuSans-63" x="466.796875"/>
     <use xlink:href="#DejaVuSans-67" x="521.777344"/>
    </g>
   </g>
   <g id="text_9">
    <!-- spo2 -->
    <g transform="translate(1073.805165 511.306927) scale(0.18 -0.18)">
     <defs>
      <path id="DejaVuSans-32" d="M 1228 531 
L 3431 531 
L 3431 0 
L 469 0 
L 469 531 
Q 828 903 1448 1529 
Q 2069 2156 2228 2338 
Q 2531 2678 2651 2914 
Q 2772 3150 2772 3378 
Q 2772 3750 2511 3984 
Q 2250 4219 1831 4219 
Q 1534 4219 1204 4116 
Q 875 4013 500 3803 
L 500 4441 
Q 881 4594 1212 4672 
Q 1544 4750 1819 4750 
Q 2544 4750 2975 4387 
Q 3406 4025 3406 3419 
Q 3406 3131 3298 2873 
Q 3191 2616 2906 2266 
Q 2828 2175 2409 1742 
Q 1991 1309 1228 531 
z
" transform="scale(0.015625)"/>
     </defs>
     <use xlink:href="#DejaVuSans-73"/>
     <use xlink:href="#DejaVuSans-70" x="52.099609"/>
     <use xlink:href="#DejaVuSans-6f" x="115.576172"/>
     <use xlink:href="#DejaVuSans-32" x="176.757812"/>
    </g>
   </g>
  </g>
 </g>
 <defs>
  <clipPath id="pce9eaf4610">
   <rect x="180" y="86.4" width="1116" height="554.4"/>
  </clipPath>
 </defs>
</svg>
